# xmcd
#
# Track frame offsets:
#   150
#   17492
#   33007
#   51582
#   65617
#   79177
#   97522
#   114742
#   127557
#   146725
#   166135
#   180745
#   192817
#
# Disc length: 2727 seconds
#
# Revision: 0
# Processed by: cddbd v1.4PL0 Copyright (c) Steve Scherf et al.
# Submitted via: uFREEDB ActiveX Control 1.5
#
DISCID=9e0aa50d
DTITLE=alma serrana - serrana mania
DYEAR=1998
DGENRE=UnClassifiable
TTITLE0=serrana mania
TTITLE1=la cautiva
TTITLE2=feitiço no oçlhar
TTITLE3=caboclo
TTITLE4=bailanta no povoado
TTITLE5=tudo que sempre quis
TTITLE6=paixão sem cura
TTITLE7=tranco da vaneirinha
TTITLE8=oroité
TTITLE9=do jeito que te amei
TTITLE10=roda morena
TTITLE11=sem palavras
TTITLE12=rasgando a madrugada
EXTD=
EXTT0=
EXTT1=
EXTT2=
EXTT3=
EXTT4=
EXTT5=
EXTT6=
EXTT7=
EXTT8=
EXTT9=
EXTT10=
EXTT11=
EXTT12=
PLAYORDER=
